<svg xmlns="http://www.w3.org/2000/svg" viewBox="0 0 134.3117 189.79778"><g style="isolation:isolate"><g id="baa3b401-d992-40e1-8c9c-8822e791d229" data-name="Layer 2"><g id="becbab6c-2ac9-4c1a-a312-7d2f3b6fe1f9" data-name="Layer 1"><path d="M95.9649,147.2503H94.7578v-9.8231H91.9335v-1.0918h2.7842c-.4568-1.4465-.9244-2.8791-1.3858-4.31962v.65062H92.1074v-4.4675Q79.26575,88.60022,64.2625,51.9796,49.5658,88.1386,36.8306,127.175l-.0006.0334c-.0608,1.8853-.3466,3.8317-1.5534,4.8107q-2.029,6.35535-3.9997,12.785a1.76111,1.76111,0,0,0,2.0316,1.6172c1.9357,0,2.0812-1.3828,2.0665-2.2412v-7.8447h1.208v8.2812c0,1.95018-1.295,2.8955-3.2745,2.8955a3.39833,3.39833,0,0,1-2.5806-.9302q-6.4467,21.18882-12.1966,43.21588h89.8901c.572,0,1.1378-.02518,1.7004-.06168q-6.6162-25.2447-14.1569-49.3994Zm-48.8888-9.8231H44.2528v9.8231H43.0449v-9.8231H40.2216v-1.0918h6.8545Zm-3.419-4.4991c-3.1883,0-3.5663-2.9257-3.5946-5.9522,0-2.5028.3778-5.4433,3.6231-5.4433,3.1875,0,3.58,2.9405,3.5653,5.4433C47.2362,130.0024,46.8438,132.9281,43.6571,132.9281Zm14.1026,14.3222h-1.412a10.01475,10.01475,0,0,1-.3781-2.7792c0-1.0918-.4364-2.0234-1.8631-2.0234H51.996v4.8026H50.7891V136.3354h2.8086c2.2851,0,3.7401.5966,3.6679,3.1142a2.337,2.337,0,0,1-2.0966,2.3731v.0282c1.411.13088,1.7606.5821,1.9364,2.0382.0431.8144.1162,1.6152.2324,2.42968.0431.20412.131.68452.4219.68452Zm2.0078-14.5839h-1.209v-8.9941c0-.4658.0314-.917,0-1.3828h-.0283c-.1299.6406-.2315,1.0478-.3349,1.4707l-2.2851,8.9062H54.4707l-2.2851-9.0381c-.1026-.378-.1896-.7422-.3203-1.3388H51.836c0,.4658.0293.94628.0293,1.4121v8.9648H50.6571V121.7503h2.1397l2.1388,8.5147a9.46782,9.46782,0,0,1,.2323,1.6153h.0293a15.46522,15.46522,0,0,1,.2774-1.63l2.1679-8.5h2.125Zm7.4814,14.5839H61.7636V136.3354h5.4571v1.0918h-4.248v3.6084h3.9862v1.0918H62.9727v4.0312h4.2762Zm1.544-14.5839-2.953-5.2685-1.1349,1.4853v3.7832H63.4785V121.7503h1.211v5.6036h.0273l3.9434-5.6036h1.5146l-3.4786,4.5704,3.5791,6.3457Zm5.5742,13.7549c1.4396,0,1.7461-1.1787,1.8907-2.3721.0312-.248.0429-.4961.0741-.7431h1.2082c-.0293.21868-.0293.4521-.0597.6689a4.19072,4.19072,0,0,1-.6386,2.3145,2.75661,2.75661,0,0,1-2.373,1.2226c-3.3614,0-3.4806-3.2451-3.4806-5.8496,0-2.46.3644-5.5459,3.4648-5.5459,2.0684,0,3.1447,1.543,3.0871,3.49318H76.3319c-.0312-1.29488-.451-2.40138-1.9648-2.40138-2.0957,0-2.125,2.98338-2.125,4.4248C72.1817,143.1176,72.1543,146.4213,74.3671,146.4213Zm4.0743-13.7549H72.953V121.7503h5.4591v1.0919h-4.25v3.6094h3.9882v1.0918H74.1621v4.0312h4.2793Zm9.8671,14.5839h-1.207v-5.26852H82.9248v5.26852h-1.208V136.3354h1.208v4.5556h4.1767v-4.5556h1.207Zm.5254-14.5839H87.4218a10.02512,10.02512,0,0,1-.3789-2.7793c0-1.0918-.4364-2.0234-1.8612-2.0234H83.0722v4.8027h-1.211V121.7503H84.669c2.286,0,3.7412.5978,3.6698,3.1153a2.336,2.336,0,0,1-2.0957,2.3721v.0283c1.4112.1319,1.7608.583,1.9356,2.0391.042.8144.1162,1.6152.2315,2.42968.0428.203.1317.68452.4237.68452Z" fill="#ed1944"></path><path d="M56.0136,139.3481c-.0293-1.877-1.4989-1.9209-2.3144-1.9209H51.996v3.9287h1.9073A1.86976,1.86976,0,0,0,56.0136,139.3481Z" fill="#ed1944"></path><path d="M43.6278,122.6234c-1.8622,0-2.3291,1.9512-2.3144,4.3809.0147,3.1582.3351,4.832,2.3437,4.832,2.0089,0,2.3283-1.6738,2.3429-4.832C46.0136,124.5746,45.5487,122.6234,43.6278,122.6234Z" fill="#ed1944"></path><path d="M87.086,124.7641c-.0275-1.878-1.4982-1.9219-2.3125-1.9219H83.0722v3.9297h1.9063A1.86753,1.86753,0,0,0,87.086,124.7641Z" fill="#ed1944"></path><polyline points="18.531 189.798 0 189.798 0 0 41.497 0" fill="#005a96" opacity="0.25" style="mix-blend-mode:multiply"></polyline><path d="M30.0332,144.6166v-8.2812h1.2089v7.8447a4.16582,4.16582,0,0,0,.0348.624q1.96875-6.432,3.9997-12.785a3.07342,3.07342,0,0,1-2.011.6473H30.0487V121.7503h2.9981c3.3913,0,3.8667,2.7428,3.7838,5.4247Q49.4942,88.1285,64.2625,51.9796q-2.447-6.0033-4.9404-11.9321c-8.5866,6.9037-27.8279,26.167-27.8279,60.199l-.3907,17.6465H29.8653l.0809-84.9766H56.2809Q49.0719,16.1386,41.4974,0H0V189.79778H18.5313q5.74785-22.0185,12.1966-43.21588A2.77881,2.77881,0,0,1,30.0332,144.6166Z" fill="#ed1944"></path><path d="M30.0332,144.6166v-8.2812h1.2089v7.8447a4.16582,4.16582,0,0,0,.0348.624q1.96875-6.432,3.9997-12.785a3.07342,3.07342,0,0,1-2.011.6473H30.0487V121.7503h2.9981c3.3913,0,3.8667,2.7428,3.7838,5.4247Q49.4942,88.1285,64.2625,51.9796q-2.447-6.0033-4.9404-11.9321c-8.5866,6.9037-27.8279,26.167-27.8279,60.199l-.3907,17.6465H29.8653l.0809-84.9766H56.2809Q49.0719,16.1386,41.4974,0H0V189.79778H18.5313q5.74785-22.0185,12.1966-43.21588A2.77881,2.77881,0,0,1,30.0332,144.6166Z" fill="#005a96" opacity="0.25" style="mix-blend-mode:multiply"></path><path d="M33.1914,122.8422H31.2569v8.7324h1.9345c1.7754,0,2.5039-1.3243,2.3867-4.584C35.4912,124.5014,35.1425,122.8422,33.1914,122.8422Z" fill="#ed1944"></path><path d="M33.1914,122.8422H31.2569v8.7324h1.9345c1.7754,0,2.5039-1.3243,2.3867-4.584C35.4912,124.5014,35.1425,122.8422,33.1914,122.8422Z" fill="#005a96" opacity="0.25" style="mix-blend-mode:multiply"></path><path d="M86.9666,0h47.3451V163.9076a25.88732,25.88732,0,0,1-24.1899,25.8285" fill="#50b848" opacity="0.25" style="mix-blend-mode:multiply"></path><path d="M134.3117,163.9076V0H86.9666Q79.41185,16.1448,72.2132,32.932H98.6884l.0821,84.9766H97.5321l-.3905-17.6465c0-34.15432-19.3841-53.438-27.9246-60.2772Q66.714,45.9408,64.2625,51.9796q14.92965,36.62925,27.8449,76.2193v-6.4486h1.209v5.6036h.0293l3.9433-5.6036h1.5147l-3.4785,4.5704,3.5791,6.3457H97.4209l-2.9541-5.2685-1.1349,1.4853v3.13258c.4614,1.44052.929,2.87312,1.3858,4.31962h4.0724v1.0918H95.9649v2.9095q7.52835,24.1527,14.1569,49.3994A25.88732,25.88732,0,0,0,134.3117,163.9076Z" fill="#ed1944"></path><path d="M134.3117,163.9076V0H86.9666Q79.41185,16.1448,72.2132,32.932H98.6884l.0821,84.9766H97.5321l-.3905-17.6465c0-34.15432-19.3841-53.438-27.9246-60.2772Q66.714,45.9408,64.2625,51.9796q14.92965,36.62925,27.8449,76.2193v-6.4486h1.209v5.6036h.0293l3.9433-5.6036h1.5147l-3.4785,4.5704,3.5791,6.3457H97.4209l-2.9541-5.2685-1.1349,1.4853v3.13258c.4614,1.44052.929,2.87312,1.3858,4.31962h4.0724v1.0918H95.9649v2.9095q7.52835,24.1527,14.1569,49.3994A25.88732,25.88732,0,0,0,134.3117,163.9076Z" fill="#50b848" opacity="0.25" style="mix-blend-mode:multiply"></path><line x1="41.4974" x2="86.9666" fill="#005a96" opacity="0.25" style="mix-blend-mode:multiply"></line><line x1="41.4974" x2="86.9666" fill="#50b848" opacity="0.25" style="mix-blend-mode:multiply"></line><path d="M56.2809,32.9164h7.0989v4.1792a42.81626,42.81626,0,0,0-4.0577,2.9519q2.49615,5.92425,4.9404,11.9321,2.45325-6.03585,4.9545-11.9947a42.05989,42.05989,0,0,0-3.9622-2.8737V32.932h6.9584Q79.406,16.14535,86.9666,0H41.4974Q49.06745,16.13535,56.2809,32.9164Z" fill="#ed1944"></path><path d="M56.2809,32.9164h7.0989v4.1792a42.81626,42.81626,0,0,0-4.0577,2.9519q2.49615,5.92425,4.9404,11.9321,2.45325-6.03585,4.9545-11.9947a42.05989,42.05989,0,0,0-3.9622-2.8737V32.932h6.9584Q79.406,16.14535,86.9666,0H41.4974Q49.06745,16.13535,56.2809,32.9164Z" fill="#005a96" opacity="0.25" style="mix-blend-mode:multiply"></path><path d="M56.2809,32.9164h7.0989v4.1792a42.81626,42.81626,0,0,0-4.0577,2.9519q2.49615,5.92425,4.9404,11.9321,2.45325-6.03585,4.9545-11.9947a42.05989,42.05989,0,0,0-3.9622-2.8737V32.932h6.9584Q79.406,16.14535,86.9666,0H41.4974Q49.06745,16.13535,56.2809,32.9164Z" fill="#50b848" opacity="0.25" style="mix-blend-mode:multiply"></path><path d="M29.9462,32.9164l-.0809,84.9766h1.2382l.3907-17.6465c0-34.032,19.2413-53.2953,27.8279-60.199q-1.5099-3.58335-3.0412-7.1311Z" fill="#fff"></path><path d="M63.3798,32.9164H56.2809q1.5273,3.5544,3.0412,7.1311a42.81626,42.81626,0,0,1,4.0577-2.9519Z" fill="#fff"></path><path d="M97.1416,100.2621l.3905,17.6465h1.2384L98.6884,32.932H72.2132q-1.5057,3.5139-2.9962,7.0529C77.7575,46.8241,97.1416,66.10778,97.1416,100.2621Z" fill="#fff"></path><path d="M65.2548,37.1112a42.05989,42.05989,0,0,1,3.9622,2.8737q1.4886-3.54225,2.9962-7.0529H65.2548Z" fill="#fff"></path><path d="M36.83,127.2084l.0006-.0334q-.78285,2.4144-1.554,4.8441C36.4834,131.0401,36.7692,129.0937,36.83,127.2084Z" fill="#fff"></path><path d="M33.0468,121.7503H30.0487v10.9161h3.2169a3.07342,3.07342,0,0,0,2.011-.6473q.77445-2.4255,1.554-4.8441C36.9135,124.4931,36.4381,121.7503,33.0468,121.7503Zm.1446,9.8243H31.2569v-8.7324h1.9345c1.9511,0,2.2998,1.6592,2.3867,4.1484C35.6953,130.2503,34.9668,131.5746,33.1914,131.5746Z" fill="#fff"></path><path d="M43.6856,121.5326c-3.2453,0-3.6231,2.9405-3.6231,5.4433.0283,3.0265.4063,5.9522,3.5946,5.9522,3.1867,0,3.5791-2.9257,3.5938-5.9522C47.2656,124.4731,46.8731,121.5326,43.6856,121.5326Zm-.0285,10.3037c-2.0086,0-2.329-1.6738-2.3437-4.832-.0147-2.4297.4522-4.3809,2.3144-4.3809,1.9209,0,2.3858,1.9512,2.3722,4.3809C45.9854,130.1625,45.666,131.8363,43.6571,131.8363Z" fill="#fff"></path><path d="M55.4746,130.2503a15.46522,15.46522,0,0,0-.2774,1.63h-.0293a9.46782,9.46782,0,0,0-.2323-1.6153l-2.1388-8.5147H50.6571v10.9161h1.2082v-8.9648c0-.46582-.0293-.9463-.0293-1.4121h.0293c.1307.5966.2177.9608.3203,1.3388l2.2851,9.0381h1.4395l2.2851-8.9062c.1034-.4229.205-.8301.3349-1.4707h.0283c.0314.4658,0,.917,0,1.3828v8.9941h1.209V121.7503h-2.125Z" fill="#fff"></path><polygon points="70.175 121.75 68.66 121.75 64.717 127.354 64.689 127.354 64.689 121.75 63.478 121.75 63.478 132.666 64.705 132.666 64.705 128.883 65.84 127.398 68.793 132.666 70.275 132.666 66.696 126.321 70.175 121.75" fill="#fff"></polygon><polygon points="74.162 127.543 78.15 127.543 78.15 126.452 74.162 126.452 74.162 122.842 78.412 122.842 78.412 121.75 72.953 121.75 72.953 132.666 78.441 132.666 78.441 131.575 74.162 131.575 74.162 127.543" fill="#fff"></polygon><path d="M88.4102,131.73478c-.1153-.81448-.1895-1.61528-.2315-2.42968-.1748-1.4561-.5244-1.9072-1.9356-2.0391v-.0283a2.336,2.336,0,0,0,2.0957-2.3721c.0714-2.5175-1.3838-3.1153-3.6698-3.1153H81.8612v10.9161h1.211v-4.8027h2.1095c1.4248,0,1.8612.9316,1.8612,2.0234a10.02512,10.02512,0,0,0,.3789,2.7793h1.4121v-.2471C88.5419,132.4193,88.453,131.93778,88.4102,131.73478Zm-3.4317-4.96288H83.0722v-3.9297h1.7013c.8143,0,2.285.0439,2.3125,1.9219A1.86753,1.86753,0,0,1,84.9785,126.7719Z" fill="#fff"></path><path d="M93.3319,132.6664v-.65062c-.4078-1.27278-.8132-2.54858-1.2245-3.81688v4.4675Z" fill="#fff"></path><path d="M93.3319,128.8832l1.1349-1.4853,2.9541,5.2685h1.4834l-3.5791-6.3457,3.4785-4.5704H97.289l-3.9433,5.6036h-.0293v-5.6036h-1.209v6.4486c.4113,1.2683.8167,2.5441,1.2245,3.81688Z" fill="#fff"></path><path d="M33.3085,147.5121c1.9795,0,3.2745-.94532,3.2745-2.8955v-8.2812H35.375v7.8447c.0147.8584-.1308,2.2412-2.0665,2.2412a1.76111,1.76111,0,0,1-2.0316-1.6172c-.1818.594-.368,1.18268-.549,1.7778A3.39833,3.39833,0,0,0,33.3085,147.5121Z" fill="#fff"></path><path d="M31.2421,136.3354H30.0332v8.2812a2.77881,2.77881,0,0,0,.6947,1.9653c.181-.59512.3672-1.1838.549-1.7778a4.16582,4.16582,0,0,1-.0348-.624Z" fill="#fff"></path><polygon points="40.222 137.427 43.045 137.427 43.045 147.25 44.253 147.25 44.253 137.427 47.076 137.427 47.076 136.335 40.222 136.335 40.222 137.427" fill="#fff"></polygon><path d="M57.3378,146.31878c-.1162-.81448-.1893-1.61528-.2324-2.42968-.1758-1.4561-.5254-1.90732-1.9364-2.0382v-.0282a2.337,2.337,0,0,0,2.0966-2.3731c.0722-2.5176-1.3828-3.1142-3.6679-3.1142H50.7891v10.9149H51.996v-4.8026h2.1105c1.4267,0,1.8631.9316,1.8631,2.0234a10.01475,10.01475,0,0,0,.3781,2.7792h1.412v-.247C57.4688,147.0033,57.3809,146.5229,57.3378,146.31878Zm-3.4345-4.96288H51.996v-3.9287h1.7032c.8155,0,2.2851.0439,2.3144,1.9209A1.86976,1.86976,0,0,1,53.9033,141.3559Z" fill="#fff"></path><polygon points="62.973 142.127 66.959 142.127 66.959 141.036 62.973 141.036 62.973 137.427 67.221 137.427 67.221 136.335 61.764 136.335 61.764 147.25 67.249 147.25 67.249 146.159 62.973 146.159 62.973 142.127" fill="#fff"></polygon><path d="M74.3671,137.2084c1.5138,0,1.9336,1.1065,1.9648,2.40138h1.2082c.0576-1.95018-1.0187-3.49318-3.0871-3.49318-3.1004,0-3.4648,3.0859-3.4648,5.5459,0,2.6045.1192,5.8496,3.4806,5.8496a2.75661,2.75661,0,0,0,2.373-1.2226,4.19072,4.19072,0,0,0,.6386-2.3145c.0304-.2168.0304-.45022.0597-.6689H76.3319c-.0312.247-.0429.4951-.0741.7431-.1446,1.1934-.4511,2.3721-1.8907,2.3721-2.2128,0-2.1854-3.3037-2.125-4.7881C72.2421,140.19178,72.2714,137.2084,74.3671,137.2084Z" fill="#fff"></path><polygon points="87.101 140.891 82.925 140.891 82.925 136.335 81.717 136.335 81.717 147.25 82.925 147.25 82.925 141.982 87.101 141.982 87.101 147.25 88.308 147.25 88.308 136.335 87.101 136.335 87.101 140.891" fill="#fff"></polygon><path d="M91.9335,137.4272h2.8243v9.8231h1.2071v-6.9136c-.4158-1.33392-.8276-2.6725-1.2472-4.0013H91.9335Z" fill="#fff"></path><path d="M95.9649,137.4272h2.8252v-1.0918H94.7177c.4196,1.3288.8314,2.66738,1.2472,4.0013Z" fill="#fff"></path></g></g></g></svg>